<svg width="31" height="39" viewBox="0 0 31 39" fill="none" xmlns="http://www.w3.org/2000/svg">
<path d="M2.44318 37H16.5739C24.5682 37 28.4886 32.9261 28.4886 27.4886C28.4886 22.2045 24.7386 19.1023 21.0227 18.9148V18.5739C24.4318 17.7727 27.125 15.3864 27.125 11.142C27.125 5.94318 23.375 2.09091 15.8068 2.09091H2.44318V37ZM8.76705 31.7159V21.4886H15.7386C19.642 21.4886 22.0625 23.875 22.0625 26.9943C22.0625 29.7727 20.1534 31.7159 15.5682 31.7159H8.76705ZM8.76705 16.9375V7.30682H15.1591C18.875 7.30682 20.8011 9.26705 20.8011 11.9602C20.8011 15.0284 18.3125 16.9375 15.0227 16.9375H8.76705Z" fill="white"/>
<path d="M2.44318 37H0.443182V39H2.44318V37ZM21.0227 18.9148H19.0227V20.8164L20.9219 20.9122L21.0227 18.9148ZM21.0227 18.5739L20.5652 16.6269L19.0227 16.9894V18.5739H21.0227ZM2.44318 2.09091V0.0909081H0.443182V2.09091H2.44318ZM8.76705 31.7159H6.76705V33.7159H8.76705V31.7159ZM8.76705 21.4886V19.4886H6.76705V21.4886H8.76705ZM8.76705 16.9375H6.76705V18.9375H8.76705V16.9375ZM8.76705 7.30682V5.30682H6.76705V7.30682H8.76705ZM2.44318 39H16.5739V35H2.44318V39ZM16.5739 39C20.8931 39 24.3866 37.8988 26.8314 35.8013C29.3082 33.6764 30.4886 30.715 30.4886 27.4886H26.4886C26.4886 29.6998 25.7088 31.4941 24.2269 32.7654C22.7129 34.0643 20.2489 35 16.5739 35V39ZM30.4886 27.4886C30.4886 21.1204 25.8847 17.1576 21.1235 16.9173L20.9219 20.9122C23.5926 21.047 26.4886 23.2887 26.4886 27.4886H30.4886ZM23.0227 18.9148V18.5739H19.0227V18.9148H23.0227ZM21.4803 20.5208C23.4903 20.0485 25.4117 19.0802 26.8419 17.4836C28.2953 15.8613 29.125 13.7175 29.125 11.142H25.125C25.125 12.811 24.6081 13.9824 23.8626 14.8147C23.0939 15.6727 21.9642 16.2981 20.5652 16.6269L21.4803 20.5208ZM29.125 11.142C29.125 8.03413 27.9865 5.1873 25.6049 3.14778C23.256 1.13639 19.9123 0.0909081 15.8068 0.0909081V4.09091C19.2695 4.09091 21.5849 4.97156 23.0031 6.18602C24.3885 7.37236 25.125 9.0511 25.125 11.142H29.125ZM15.8068 0.0909081H2.44318V4.09091H15.8068V0.0909081ZM0.443182 2.09091V37H4.44318V2.09091H0.443182ZM10.767 31.7159V21.4886H6.76705V31.7159H10.767ZM8.76705 23.4886H15.7386V19.4886H8.76705V23.4886ZM15.7386 23.4886C17.2824 23.4886 18.3587 23.9557 19.0243 24.5564C19.6795 25.1477 20.0625 25.9763 20.0625 26.9943H24.0625C24.0625 24.893 23.2353 22.9688 21.7044 21.587C20.1839 20.2147 18.0983 19.4886 15.7386 19.4886V23.4886ZM20.0625 26.9943C20.0625 27.8891 19.7799 28.443 19.292 28.83C18.7307 29.2752 17.6201 29.7159 15.5682 29.7159V33.7159C18.1015 33.7159 20.238 33.1851 21.7776 31.964C23.3905 30.6848 24.0625 28.8779 24.0625 26.9943H20.0625ZM15.5682 29.7159H8.76705V33.7159H15.5682V29.7159ZM10.767 16.9375V7.30682H6.76705V16.9375H10.767ZM8.76705 9.30682H15.1591V5.30682H8.76705V9.30682ZM15.1591 9.30682C16.6794 9.30682 17.5728 9.70601 18.0575 10.1296C18.5152 10.5295 18.8011 11.1154 18.8011 11.9602H22.8011C22.8011 10.1119 22.124 8.37107 20.6896 7.11759C19.2823 5.88773 17.3547 5.30682 15.1591 5.30682V9.30682ZM18.8011 11.9602C18.8011 12.9057 18.4389 13.5852 17.8655 14.0627C17.2583 14.5685 16.2949 14.9375 15.0227 14.9375V18.9375C17.0404 18.9375 18.9661 18.3519 20.4257 17.1361C21.9191 15.8921 22.8011 14.0829 22.8011 11.9602H18.8011ZM15.0227 14.9375H8.76705V18.9375H15.0227V14.9375Z" fill="#3A89A6"/>
</svg>
